# xmcd
#
# Track frame offsets:
#	150
#	19608
#	42585
#	62166
#	77355
#	100184
#	124246
#	141073
#	156464
#	172694
#	185597
#	202519
#
# Disc length: 2929 seconds
#
# Revision: 4223131119
# Processed by: cddbd v1.5.2PL0 Copyright (c) Steve Scherf et al.
# Submitted via: EZCDAudioConverter 9.0.7.1
#
DISCID=940b6f0c
DTITLE=Klipwerf - Hantam Bokkie
DYEAR=1999
DGENRE=Afrikaans
TTITLE0=a.Ai DieTrane die Rol oor Jou bokkie b.Die Hand Vol Vere
TTITLE1=Before I Met You
TTITLE2=Liewe Lulu
TTITLE3=Een Sondag op die Plaas
TTITLE4=Sneeuvlokkies
TTITLE5=Swinging Safari
TTITLE6=Blou Bul
TTITLE7=Lola
TTITLE8=Soetwyn
TTITLE9=a.Riviere Vol Brandewyn b.The Old Banjo
TTITLE10=Boesmanland
TTITLE11=Down by the Riverside
EXTD=
EXTT0=
EXTT1=
EXTT2=
EXTT3=
EXTT4=
EXTT5=
EXTT6=
EXTT7=
EXTT8=
EXTT9=
EXTT10=
EXTT11=
PLAYORDER=
